<svg xmlns="http://www.w3.org/2000/svg" enable-background="new 0 0 32 32" viewBox="0 0 32 32"><path fill="#a9d2ed" d="M25,13v4H7v-4h0.52l2.5-3.12C10.97,8.68,12.4,8,13.92,8h4.16c1.52,0,2.95,0.68,3.9,1.88l2.5,3.12H25z"/><rect width="2" height="9" x="15" y="8" fill="#70b7e8"/><path fill="#36a0e8" d="M30,16v3c0,1.66-1.34,3-3,3H5c-1.66,0-3-1.34-3-3v-3c0-1.66,1.34-3,3-3h22C28.66,13,30,14.34,30,16z"/><path fill="#a9d2ed" d="M30 16v2h-2.5c-.28 0-.5-.22-.5-.5v-1c0-.28.22-.5.5-.5H30zM5 16.5v1C5 17.78 4.78 18 4.5 18H2v-2h2.5C4.78 16 5 16.22 5 16.5z"/><circle cx="9" cy="21" r="3" fill="#a9d2ed"/><circle cx="9" cy="21" r="1.5" fill="#36a0e8"/><circle cx="23" cy="21" r="3" fill="#a9d2ed"/><circle cx="23" cy="21" r="1.5" fill="#36a0e8"/></svg>