<svg xmlns="http://www.w3.org/2000/svg" enable-background="new 0 0 2000 2000" viewBox="0 0 2000 2000"><path fill="#def2ff" d="M395.267,1277.443c-51.862-100.607-13.548-120.237-119.389-551.382
		c-44.27-180.333-59.036-209.747-42.169-265.2c62.035-203.948,422.822-335.55,705.085-261.627
		c89.398,23.413,93.533,47.176,403.942,254.178c359.054,239.442,398.065,237.353,430.902,309.357
		c109.344,239.769-112.846,724.286-518.684,847.409C903.389,1716.835,520.325,1520.04,395.267,1277.443z" opacity=".3"/><path fill="#fff" stroke="#231f20" stroke-miterlimit="10" stroke-width="2" d="M1821.408,649.416
		c0,0-16.808-27.608-58.259-26.243c-40.15,1.322-40.172,0-40.172,0s-15.641-70.295-72.946-72.946c-29.672-1.373-43.099,0-43.099,0
		s-9.336-104.882-104.882-104.882c-95.546,0-105.194,102.036-105.194,102.036s-183.861-43.185-183.861,102.036H1821.408z"/><path fill="#fff" stroke="#231f20" stroke-miterlimit="10" stroke-width="2" d="M1333.074,1431.433
		c0,0,434.368,4.359,471.037,0c-45.994-75.248-127.016-58.217-127.016-58.217c0-53.858-132.005-118.276-176.886-49.634
		C1433.678,1302.462,1321.705,1356.59,1333.074,1431.433z"/><path fill="#fff" stroke="#231f20" stroke-miterlimit="10" stroke-width="2" d="M624.635,1070.422c0,0-411.319,4.128-446.043,0
		c43.553-71.255,120.277-55.128,120.277-55.128c0-51,125-112,167.5-47C529.369,948.294,635.401,999.55,624.635,1070.422z"/><path d="M1010.113,1160.222L1010.113,1160.222c-6.58,0-11.915-5.334-11.915-11.915v-3.064c0-6.58,5.334-11.915,11.915-11.915l0,0
		c6.58,0,11.915,5.334,11.915,11.915v3.064C1022.028,1154.887,1016.693,1160.222,1010.113,1160.222z"/><path fill="none" stroke="#000" stroke-miterlimit="10" stroke-width="1.423" d="M951.24,1443.935l8.795,21.388
		l50.152-317.697c0,0-251.106-173.316-263.021-204.082"/><polyline fill="none" stroke="#000" stroke-miterlimit="10" stroke-width="1.423" points="1259.815 949.03 1010.187 1147.626 1045.419 1465.323 1055.015 1442.452"/><polyline fill="none" stroke="#000" stroke-miterlimit="10" stroke-width="1.423" points="973.678 845.926 1010.187 1147.626 1005.635 1470.31"/><path fill="#9ebff5" d="M1055.096,1465.25h-95.362c-5.503,0-9.963-4.461-9.963-9.963l0,0c0-5.503,4.461-9.963,9.963-9.963
		h95.362c5.503,0,9.963,4.461,9.963,9.963l0,0C1065.059,1460.789,1060.598,1465.25,1055.096,1465.25z"/><path fill="#f4d4c7" stroke="#f4d4c7" stroke-miterlimit="10" stroke-width="1.264" d="M976.931,1549.445
			c3.609-1.191,7.064-1.836,13.162-2.558c2.86-0.339,5.296-0.576,7.14-0.739c2.629,0.757,5.65,1.848,8.864,3.447
			c5.451,2.712,9.556,5.942,12.434,8.617c-0.301,0.81-1.311,3.206-3.693,4.186c-0.664,0.273-1.963,0.653-5.17-0.123
			c-4.596-1.112-4.818-2.593-7.756-3.201c-1.838-0.38-4.82,0.48-10.71,2.216c-5.389,1.588-5.65,1.966-7.386,2.093
			c-2.649,0.194-6.237-0.378-10.675-3.447c-0.433-0.501-3.456-4.089-2.251-7.017
			C971.111,1552.378,971.771,1551.148,976.931,1549.445z"/><path fill="#fb7784" d="M970.883,1561.76c0.477,0.015,0.93-0.181,1.241-0.543c1.27-1.477,3.033-3.958,4.051-7.437
			c0.691-2.364,0.831-4.48,0.792-6.085c-0.016-0.635-0.407-1.2-0.995-1.439c-8.03-3.262-14.663-5.659-19.248-7.249
			c-9.508-3.297-9.26-2.794-21.663-7.042c-4.372-1.497-9.075-3.159-16.007-5.146c-3.263-0.935-5.964-1.639-7.756-2.093
			c-6.537-2.054-13.38,1.033-15.881,6.525c-2.903,6.376,0.561,14.858,8.192,17.481c1.988,0.76,4.695,1.755,7.935,2.832
			c2.236,0.743,11.473,3.765,23.39,6.155C949.03,1560.548,961.8,1561.474,970.883,1561.76z"/><path fill="#fb7784" d="M961.952,1460.292c-1.565-0.195-3.14,0.311-4.308,1.37c-8.837,8.011-16.177,15.094-21.84,20.717
			c-7.61,7.556-17.067,16.987-28.437,30.284c-4.189,4.899-7.554,9.055-9.848,11.941c-4.995,6.09-4.806,14.696-0.123,19.943
			c5.458,6.116,14.773,6.155,22.528-0.123c9.11-6.92,17.02-13.306,23.636-18.835c3.356-2.805,10.415-8.762,19.2-16.694
			c5.03-4.542,9.346-8.575,12.808-11.866c6.336-7.176,7.584-17.42,3.201-25.483C975.385,1465.326,969.073,1461.18,961.952,1460.292z
			"/><path fill="none" stroke="#f2b085" stroke-miterlimit="10" stroke-width="1.264" d="M935.999,1532.287
			c-4.372-1.497-10.013-3.48-16.945-5.466c-3.263-0.935-5.964-1.639-7.756-2.093"/><path fill="#f4d4c7" stroke="#f4d4c7" stroke-miterlimit="10" stroke-width="1.264" d="M1037.898,1550.191
			c-3.609-1.191-7.064-1.836-13.162-2.558c-2.86-0.339-5.296-0.576-7.14-0.739c-2.629,0.757-5.65,1.848-8.864,3.447
			c-5.451,2.712-9.556,5.942-12.434,8.617c0.301,0.81,1.311,3.206,3.693,4.186c0.664,0.273,1.963,0.653,5.17-0.123
			c4.596-1.113,4.818-2.593,7.756-3.201c1.838-0.38,4.82,0.48,10.71,2.216c5.389,1.588,5.65,1.966,7.386,2.093
			c2.649,0.194,6.237-0.377,10.675-3.447c0.433-0.501,3.456-4.09,2.251-7.017
			C1043.718,1553.124,1043.058,1551.894,1037.898,1550.191z"/><path fill="#fb7784" d="M1043.947,1562.507c-0.477,0.015-0.93-0.181-1.241-0.543c-1.27-1.477-3.033-3.958-4.051-7.437
			c-0.691-2.364-0.831-4.48-0.792-6.084c0.016-0.635,0.407-1.201,0.995-1.439c8.03-3.262,14.663-5.659,19.248-7.249
			c9.508-3.297,9.26-2.794,21.663-7.042c4.372-1.497,9.075-3.159,16.007-5.146c3.263-0.935,5.964-1.639,7.756-2.093
			c6.537-2.054,13.38,1.033,15.881,6.525c2.903,6.376-0.561,14.858-8.192,17.481c-1.988,0.76-4.695,1.755-7.935,2.832
			c-2.235,0.742-11.473,3.765-23.39,6.155C1065.8,1561.294,1053.029,1562.22,1043.947,1562.507z"/><path fill="#fb7784" d="M1052.878,1461.038c1.565-0.195,3.14,0.311,4.308,1.37c8.837,8.011,16.177,15.094,21.84,20.717
			c7.61,7.556,17.067,16.987,28.437,30.284c4.189,4.899,7.554,9.055,9.848,11.941c4.995,6.09,4.806,14.696,0.123,19.943
			c-5.458,6.116-14.773,6.155-22.528-0.123c-9.11-6.92-17.02-13.306-23.636-18.835c-3.356-2.805-10.415-8.762-19.2-16.694
			c-5.03-4.542-9.346-8.575-12.808-11.866c-6.336-7.176-7.584-17.42-3.201-25.483
			C1039.444,1466.072,1045.757,1461.927,1052.878,1461.038z"/><path fill="none" stroke="#f2b085" stroke-miterlimit="10" stroke-width="1.264" d="M1078.83,1533.033
			c4.372-1.497,10.013-3.48,16.945-5.466c3.263-0.935,5.964-1.639,7.756-2.093"/><path fill="#ffd5c2" stroke="#ffd5c2" stroke-miterlimit="10" stroke-width="1.264" d="M997.045,1429.132
				c0,0.931,0,2.416,0,3.347v15.845c0,0.392,0.247,0.745,0.618,0.871c2.407,0.814,5.782,1.66,9.873,1.805
				c4.356,0.154,7.979-0.542,10.52-1.251c0.396-0.11,0.666-0.475,0.666-0.886v-16.703c0-1.032,0-2.065,0-3.097
				c-2.132-0.938-6.406-2.472-11.908-2.095C1002.39,1427.27,999.005,1428.129,997.045,1429.132z"/><path fill="#f9c4b2" stroke="#f9c4b2" stroke-miterlimit="10" stroke-width="1.264" d="M1018.723,1432.159
				c0-1.032,0-2.065,0-3.097c-2.132-0.938-6.406-2.472-11.908-2.095c-4.425,0.303-7.81,1.162-9.77,2.165c0,1.116,0,2.231,0,3.347
				c0.676,0.694,4.543,4.528,10.708,4.52C1014.154,1436.99,1018.092,1432.846,1018.723,1432.159z"/><path fill="#fb7784" d="M959.184,1462.238c0.155-0.967,0.746-1.799,1.601-2.276c4.515-2.519,10.333-5.211,17.367-7.235
				c5.549-1.597,10.613-2.42,14.896-2.831v-11.824c4.763-0.017,9.564-0.055,14.403-0.117c4.757-0.061,9.476-0.143,14.157-0.246
				v11.573c4.401,0.494,9.697,1.457,15.511,3.323c7.118,2.285,12.917,5.251,17.331,7.954c0.802,0.491,1.349,1.3,1.494,2.229
				c0.531,3.419,1.032,7.873,1.119,13.084c0.07,4.245-0.147,8.246-0.739,13.542c-0.545,4.878-1.79,14.292-6.401,32.992
				c-1.232,4.996-2.982,11.779-5.294,19.82c-10.144,1.746-22.074,3.103-35.454,3.324c-14.645,0.242-27.641-0.934-38.532-2.585
				c-2.336-8.484-4.081-15.61-5.294-20.805c-2.738-11.728-4.622-21.574-6.032-31.515c-0.875-6.173-1.193-9.741-1.231-13.788
				C958.03,1470.99,958.579,1465.997,959.184,1462.238z"/><polygon fill="#b3b5b5" stroke="#b3b5b5" stroke-miterlimit="10" stroke-width="1.264" points="1056.773 1567.352 958.883 1567.352 951.516 1496.599 1063.752 1496.599"/><circle cx="1007.489" cy="1526.984" r="9.256" fill="#828687" stroke="#828687" stroke-miterlimit="10" stroke-width="1.264"/><path fill="#eaeae9" stroke="#eaeae9" stroke-miterlimit="10" stroke-width="1.264" d="M964.863,1733.517
				c1.286,3.302,2.604,7.586,3.338,12.692c0.845,5.879,0.651,11.011,0.182,14.968c-0.099,0.839-0.718,1.526-1.54,1.721
				c-15.922,3.777-28.319,4.975-36.327,5.376c-7.018,0.352-12.049,0.161-17.107-0.496c-6.516-0.846-11.97-2.32-16.079-3.691
				c-0.898-0.299-1.424-1.221-1.23-2.148c0.457-2.189,1.257-4.802,2.682-7.549c0.008-0.015,0.016-0.031,0.024-0.046
				c1.263-2.424,3.307-4.344,5.754-5.562c5.828-2.902,11.671-5.826,17.527-8.771c7.062-3.551,14.086-7.105,21.073-10.661
				c1.322-0.69,5.713-2.77,11.404-1.735C960.472,1728.688,963.913,1732.413,964.863,1733.517z"/><path fill="none" stroke="#fff" stroke-miterlimit="10" stroke-width="1.264" d="M896.692,1759.597
				c3.19,1.387,8.168,3.226,14.486,4.214c5.755,0.9,10.359,0.739,14.132,0.496c16.809-1.083,38.26-5.163,43.35-6.149"/><path fill="#233a63" stroke="#233a63" stroke-miterlimit="10" stroke-width="1.264" d="M1044.643,1541.992
				c0.149,2.015,0.498,5.15,1.444,8.859c1.877,7.36,4.892,12.339,6.418,14.907c0.981,1.65,11,18.746,13.25,34.161
				c0.657,4.501,0.929,10.758-0.738,18.565c-0.997,4.667-3.771,8.763-7.757,11.389c-3.313,2.183-7.31,4.399-12.002,6.278
				c-11.7,4.685-22.086,5.596-28.364,5.803l-18.504-0.071c-6.443-0.01-16.747-0.73-28.364-4.762
				c-4.775-1.657-8.689-4.095-12.002-6.278c-3.985-2.626-6.76-6.721-7.757-11.389c-1.667-7.807-1.395-14.064-0.738-18.565
				c2.251-15.415,12.27-32.511,13.25-34.161c1.526-2.568,4.541-7.547,6.418-14.907c0.946-3.71,1.295-6.844,1.444-8.859
				c11.565-0.565,23.498-0.954,35.777-1.129C1019.557,1541.646,1032.307,1541.714,1044.643,1541.992z"/><path fill="none" stroke="#8189be" stroke-miterlimit="10" stroke-width="1.264" d="M1046.087,1550.852
				c-9.591,2.451-22.296,4.735-37.308,4.894c-15.971,0.169-29.436-2.121-39.419-4.587"/><path fill="#233a63" stroke="#233a63" stroke-miterlimit="10" stroke-width="1.264" d="
			M1017.68,1628.568c8.085,4.812,10.44,6.236,13.992,7.705c1.524,0.63,7.105,1.858,13.894-0.246
			c7.385-2.29,13.581-6.255,16.728-10.714c3.053-4.327,3.665-8.551,3.843-12.607c0.306-6.965-1.569-10.909-3.346-14.573
			c-3.008-6.204-6.956-10.439-10.781-14.119c-12.276-11.808-24.209-18.78-27.83-20.837c-6.847-3.89-16.407-8.634-28.328-12.503
			c-3.191-1.036-6.479-1.498-9.668-1.296c-9.841,0.621-18.043,5.907-21.617,14.272c-0.136,0.318-0.263,0.636-0.382,0.954
			c-3.487,9.304-0.273,20.689,7.62,28.362c1.917,1.864,4.038,3.872,6.348,5.981c10.045,9.173,18.366,15.425,22.235,18.253
			C1001.839,1618.26,1008.505,1623.107,1017.68,1628.568z"/><path fill="#eaeae9" stroke="#eaeae9" stroke-miterlimit="10" stroke-width="1.264" d="M1041.571,1781.638
				c-0.439,0.295-0.775,0.719-0.972,1.21c-1.504,3.757-2.737,6.959-3.665,9.412c-3.431,9.067-4.057,11.481-4.461,13.866
				c-0.542,3.199-0.626,6.006-0.561,8.174c0.03,0.989,0.606,1.871,1.5,2.296c4.42,2.102,12.195,5.01,22.211,4.963
				c9.859-0.046,17.511-2.934,21.91-5.047c0.926-0.445,1.506-1.383,1.489-2.41c-0.036-2.144-0.265-4.839-0.973-7.856
				c-0.92-3.921-2.248-6.668-3.858-9.887c-2.189-4.375-4.945-9.714-8.279-15.8c-0.29-0.53-0.752-0.946-1.311-1.177
				c-2.5-1.034-7.35-2.556-13.319-1.592C1046.849,1778.507,1043.545,1780.312,1041.571,1781.638z"/><path fill="none" stroke="#fff" stroke-miterlimit="10" stroke-width="1.264" d="M1031.917,1811.643
				c4.464,2.133,13.603,5.754,25.536,5.224c9.733-0.433,17.191-3.444,21.417-5.539"/><path fill="#233a63" stroke="#233a63" stroke-miterlimit="10" stroke-width="1.264" d="
			M970.026,1637.121c-7.787-3.074-10.09-4.603-12.002-6.278c-1.146-1.004-5.33-4.843-7.757-11.389
			c-2.64-7.12-1.629-13.203-0.738-18.565c0.817-4.915,2.067-7.858,4.404-10.917c3.406-4.459,7.52-5.949,10.975-6.955
			c5.851-1.703,10.915-1.419,15.539-0.869c14.837,1.763,26.244,6.384,29.666,7.824c6.472,2.723,15.047,6.968,24.37,13.581
			c2.496,1.77,4.663,3.985,6.329,6.551c5.144,7.921,6.24,17.597,2.661,25.724c-0.136,0.309-0.277,0.611-0.422,0.907
			c-4.256,8.666-13.69,13.554-23.285,12.473c-2.331-0.263-4.872-0.588-7.589-0.992c-11.813-1.758-20.697-4.084-24.776-5.216
			C985.873,1642.576,978.863,1640.609,970.026,1637.121z"/><path fill="#233a63" stroke="#233a63" stroke-miterlimit="10" stroke-width="1.264" d="M998.704,1638.328
				c-0.761-4.673-2.971-10.297-0.543-19.56c0.698-2.661,3.457-13.19,13.474-17.604c9.427-4.153,19.659-0.415,25.406,4.469
				c4.855,4.126,7.236,9.101,9.15,15.852c1.929,6.805,2.029,7.783,3.912,17.495c1.503,7.751,4.315,22.135,5.326,28.248
				c2.948,17.815,2.843,17.536,4.094,27.067c1.791,13.646,3.199,24.681,4.307,34.804c1.47,13.422,3.826,26.686,5.723,48.321
				c-2.617,1.747-7.544,4.534-14.344,5.542c-8.177,1.212-14.679-0.797-17.712-1.956c-3.878-13.935-7.212-25.121-9.454-32.491
				c-4.21-13.843-4.485-14.888-9.355-32.682c-4.092-14.953-7.323-25.573-9.132-32.392c-2.692-10.144-5.963-21.532-9.746-39.339
				L998.704,1638.328z"/><path fill="none" stroke="#8189be" stroke-miterlimit="10" stroke-width="1.264" d="M1005.001,1641.908
				c4.424,19.308,8.262,34.858,10.856,45.144c4.862,19.276,7.678,29.28,14.732,56.408c4.346,16.712,7.775,30.216,9.874,38.529"/><path fill="none" stroke="#8189be" stroke-miterlimit="10" stroke-width="1.264" d="
			M1008.735,1589.403c0.578,0.234,0.99,0.406,1.379,0.569c8.81,3.684,16.411,7.935,24.37,13.581l2.557,2.08
			c4.855,4.126,7.236,9.101,9.15,15.852c1.929,6.805,2.029,7.783,3.912,17.495"/><path fill="#233a63" stroke="#233a63" stroke-miterlimit="10" stroke-width="1.264" d="M1008.644,1589.348
				c0.761-4.673,2.971-10.297,0.543-19.56c-0.698-2.661-3.457-13.19-13.474-17.604c-9.426-4.153-19.659-0.415-25.406,4.469
				c-4.855,4.126-7.236,9.101-9.149,15.852c-1.929,6.805-2.029,7.783-3.912,17.495c-1.503,7.751-4.315,22.135-5.326,28.248
				c-2.948,17.815-2.843,17.536-4.094,27.067c-1.791,13.646-3.199,24.681-4.307,34.804c-1.47,13.422-3.826,26.686-5.723,48.32
				c2.617,1.747,7.544,4.534,14.344,5.542c8.177,1.212,14.679-0.797,17.712-1.956c3.878-13.935,7.212-25.121,9.454-32.491
				c4.21-13.843,4.485-14.888,9.355-32.682c4.092-14.953,7.323-25.573,9.132-32.392c2.692-10.144,5.963-21.532,9.746-39.339
				L1008.644,1589.348z"/><path fill="none" stroke="#8189be" stroke-miterlimit="10" stroke-width="1.264" d="M994.765,1645.23
				c1.651-5.866,2.66-9.44,3.027-10.769c1.872-6.799,4.173-15.228,6.712-25.868c0.971-4.068,1.983-8.522,3.034-13.471l1.107-5.774
				c1.003-3.659,1.385-6.693,1.543-8.836"/><path fill="none" stroke="#8189be" stroke-miterlimit="10" stroke-width="1.264" d="M1003.039,1587.296
				c-5.107,20.362-9.355,36.773-12.187,47.612c-5.222,19.984-7.876,29.62-13.957,52.725c-5.038,19.143-9.013,34.554-11.437,44.002"/><path fill="none" stroke="#8189be" stroke-miterlimit="10" stroke-width="1.264" d="
			M1052.009,1584.013c-12.276-11.808-24.209-18.78-27.83-20.837c-6.847-3.89-16.407-8.634-28.328-12.503
			c-3.191-1.036-6.479-1.498-9.668-1.296c-9.841,0.621-18.043,5.907-21.617,14.272l-3.409,8.856
			c-2.586,6.583-2.029,7.783-3.912,17.495c-1.503,7.751-4.315,22.135-5.326,28.248c-0.23,1.39-0.517,3.125-0.667,4.038"/><path fill="#ffd5c2" d="M1034.561,1394.763c0-2.209-0.021-4.409-0.067-6.608c0.041-0.005,0.067-0.01,0.067-0.01v-8
					c0-29.074-34.077-24.538-29.469-24.538c-1.144,0-2.319,0.098-3.515,0.287c-11.786,1.878-20.31,12.315-20.31,24.25v9.488h0.036
					c-0.025,1.694-0.035,3.392-0.036,5.091c-1.789,1.434-2.758,3.678-2.545,5.987c0.076,0.824,0.298,1.612,0.643,2.335
					c0.274,0.573,0.626,1.104,1.044,1.579c0.565,0.641,1.257,1.17,2.037,1.568c0.518,2.54,1.203,5.064,2.073,7.496
					c1.565,4.377,3.71,8.451,6.46,11.792c4.254,5.162,9.95,8.559,17.19,8.559c5.629,0,10.432-2.443,14.332-6.337
					c2.73-2.714,5.018-6.137,6.84-9.929c1.729-3.593,3.042-7.518,3.919-11.485c2.17-1.055,3.636-3.174,3.842-5.591
					C1037.298,1398.405,1036.332,1396.186,1034.561,1394.763z"/><path fill="#fcc1a8" d="M1005.878,1412.153c-0.127-0.019-0.242,0.094-0.213,0.22c0.165,0.724,1.017,1.922,1.469,1.922
					c5.131,0,4.618-6.671,3.542-3.851C1009.857,1412.591,1006.765,1412.288,1005.878,1412.153z"/><path fill="#f9c4b2" d="M1012.381,1425.586c0,0-4.147-2.318-6.543-0.693s-1.338,2.693,1.731,0.852
					C1010.627,1423.91,1013.754,1427.041,1012.381,1425.586z"/><path fill="none" stroke="#f9c4b2" stroke-miterlimit="10" stroke-width=".513" d="M1034.85,1397.378
					c0,0,1.364,1.95,0.939,3.541c-0.426,1.59-1.48,2.958-1.48,2.958"/><path fill="none" stroke="#f9c4b2" stroke-miterlimit="10" stroke-width=".513" d="M980.939,1397.378
					c0,0-1.364,1.95-0.939,3.541c0.426,1.59,1.48,2.958,1.48,2.958"/><path fill="#fcb9a8" d="M1010.406,1422.361c2.571-0.737,1.652-1.455,0.424-1.799
					C1003.393,1418.478,1001.841,1424.815,1010.406,1422.361z"/><path fill="#fcb9a8" d="M1001.328,1420.197c2.094-0.379,4.105-3.339,6.281-2.373c0.537,0.238,1.157,0.131,1.724,0.002
					c2.096-0.479,3.404,1.308,4.823,2.077"/><path fill="#fcc1a8" d="M984.009,1404.992c0.777,4.479,2.117,5.491,3.757,5.665
					C989.406,1410.831,981.987,1393.33,984.009,1404.992z"/><path fill="#fcc1a8" d="M1032.565,1402.511c-0.028-0.713-0.899-1.049-1.396-0.536c-1.52,1.568-4.022,4.472-4.141,6.721
					C1026.871,1411.652,1032.787,1408.073,1032.565,1402.511z"/><path fill="none" stroke="#000" stroke-linecap="round" stroke-linejoin="round" stroke-miterlimit="10" stroke-width=".77" d="
						M988.794,1391.449c1.047-0.442,2.119-0.847,3.215-1.213c1.539-0.513,5.131-1.026,7.697,1.026"/><path fill="none" stroke="#000" stroke-linecap="round" stroke-linejoin="round" stroke-miterlimit="10" stroke-width=".77" d="
						M1027.031,1391.667c-1.207-0.528-2.448-1.006-3.721-1.43c-1.539-0.513-5.131-1.026-7.697,1.026"/><path fill="none" stroke="#000" stroke-linecap="round" stroke-linejoin="round" stroke-miterlimit="10" stroke-width=".77" d="
					M1009.646,1402.31c0.279,2.365,1.038,5.894,1.038,7.234c0,1.641-2.189,3.283-4.924,2.189"/><path d="M994.855,1400.782L994.855,1400.782c-1.09,0-1.974-0.884-1.974-1.974v-0.789c0-1.09,0.884-1.974,1.974-1.974l0,0
							c1.09,0,1.974,0.884,1.974,1.974v0.789C996.829,1399.899,995.945,1400.782,994.855,1400.782z"/><path d="M1021.131,1400.782L1021.131,1400.782c-1.09,0-1.974-0.884-1.974-1.974v-0.789c0-1.09,0.884-1.974,1.974-1.974l0,0
							c1.09,0,1.974,0.884,1.974,1.974v0.789C1023.105,1399.899,1022.221,1400.782,1021.131,1400.782z"/><path d="M994.571,1397.072h-3.079c-0.283,0-0.513-0.23-0.513-0.513s0.23-0.513,0.513-0.513h3.079
							c0.283,0,0.513,0.23,0.513,0.513S994.855,1397.072,994.571,1397.072z"/><path d="M1024.333,1397.072h-3.079c-0.283,0-0.513-0.23-0.513-0.513s0.23-0.513,0.513-0.513h3.079
							c0.283,0,0.513,0.23,0.513,0.513S1024.616,1397.072,1024.333,1397.072z"/><path fill="#fff" d="M995.76,1398.194c0.991,0,0.992-1.539,0-1.539
						C994.769,1396.654,994.767,1398.194,995.76,1398.194L995.76,1398.194z"/><path fill="#fff" d="M1021.929,1398.194c0.991,0,0.992-1.539,0-1.539
						C1020.939,1396.654,1020.937,1398.194,1021.929,1398.194L1021.929,1398.194z"/><path fill="none" stroke="#000" stroke-linecap="round" stroke-linejoin="round" stroke-miterlimit="10" stroke-width=".77" d="
						M1001.22,1420.049c1.58,0.363,2.692-0.024,3.963-0.613c0.795-0.369,1.415-0.333,1.833-0.207
						c0.482,0.146,0.994,0.075,1.467-0.099c0.788-0.29,1.419-0.165,2.051,0.161c1.428,0.737,2.529,0.608,4.071,0.567"/><path fill="none" stroke="#000" stroke-linecap="round" stroke-linejoin="round" stroke-miterlimit="10" stroke-width=".77" d="
						M1010.35,1422.685c-1.542,0.733-3.332,0.733-4.875,0"/><g><path fill="none" stroke="#000" stroke-linecap="round" stroke-linejoin="round" stroke-miterlimit="10" stroke-width=".77" d="
					M1034.339,1403.764c0,0.513-1.48,13.215,3.155,9.411c1.002-0.822-0.728-5.776-1.917-8.818"/><path fill="none" stroke="#000" stroke-linecap="round" stroke-linejoin="round" stroke-miterlimit="10" stroke-width=".77" d="
					M981.14,1403.301c0,0.513,1.48,13.215-3.155,9.411c-1.002-0.822,0.728-5.776,1.918-8.817"/></g><g><path fill="#ffc931" d="M1008.763,1355.378c-2.247-1.952-0.083-3.604,0.12-4.592c-1.779,0.079-2.817,2.49-3.242,3.754
					c-0.54-1.311-1.739-3.677-3.395-3.754c0.697,1.167,2.489,3.358,2.37,4.83c-0.993,0.023-2.008,0.113-3.04,0.278
					c-11.788,1.88-20.31,12.315-20.31,24.252c0,0,0,9.489,0,9.489c14.06-0.224,4.388-4.101,10.106-14.945l1.402,3.418
					c0.513,3.592,1.539,8.723,5.131,9.75c-0.513-2.052,0.52-6.125,1.799-5.885c1.02,3.559,6.924,5.885,8.977,5.885
					c0-3.592-1.027-5.033-0.257-4.312s3.086,4.083,9.881,4.454c6.796,0.371,10.387,0.371,10.901-0.142
					c-0.513-3.592-0.513-3.592-0.513-3.592s1.026,3.079,2.566,3.592c1.539,0.513,3.299,0.285,3.299,0.285v-7.996
					C1034.559,1359.245,1016.953,1355.712,1008.763,1355.378z M1006.122,1355.378c-0.057,0.003-0.109,0.006-0.163,0.009
					c-0.001-0.004-0.005-0.014-0.009-0.028L1006.122,1355.378z"/><path fill="#ffdd92" d="M1011.647,1379.981c3.887,4.539,10.285,5.443,15.736,7.1c0.055,0.007,0.056,0.095-0.002,0.102
						c-4.543,0.493-8.918-1.629-12.666-3.985c-1.219-0.863-2.389-1.869-3.156-3.163
						C1011.529,1379.981,1011.61,1379.927,1011.647,1379.981L1011.647,1379.981z"/><path fill="#ffdd92" d="M1001.392,1376.42c0.055,4.448,2.891,7.613,6.376,10.009c0.044,0.029,0.016,0.105-0.038,0.095
						c-2.223-0.297-4.173-1.813-5.151-3.819c-1.086-1.936-1.487-4.162-1.289-6.293
						C1001.298,1376.351,1001.392,1376.353,1001.392,1376.42L1001.392,1376.42z"/><path fill="#ffdd92" d="M991.584,1372.379c-1.867,2.495-2.865,5.85-3.262,8.917c-0.129,1.26,0.103,2.304,0.332,3.545
						c0.146,1.363-0.427,2.923-1.733,3.523c-0.802,0.419-1.682,0.522-2.513,0.418c-0.058-0.008-0.059-0.095,0-0.103
						c2.829-0.629,3.622-2.182,3.011-4.917c-0.25-3.983,1.459-7.857,3.679-11.055c0.128-0.136,0.349-0.492,0.542-0.406
						C991.655,1372.338,991.606,1372.361,991.584,1372.379L991.584,1372.379z"/><path fill="#ffdd92" d="M1021.728,1360.168c5.518,4.232,10.871,10.476,10.964,17.78
						c0.002,0.057-0.087,0.077-0.102,0.015c-1.093-3.384-2.343-6.584-4.127-9.649
						C1026.59,1365.053,1024.08,1362.596,1021.728,1360.168L1021.728,1360.168z"/><path fill="#ffdd92" d="M997.21,1386.21c-1.734-1.082-2.673-3.233-2.933-5.198c-0.011-0.684,0.067-1.37,0.342-2.03
						c0.018-0.044,0.085-0.045,0.103,0c0.844,1.79,0.558,3.813,1.452,5.577c0.267,0.573,0.609,1.144,1.095,1.568
						C997.314,1386.163,997.261,1386.241,997.21,1386.21L997.21,1386.21z"/></g><path fill="#f76943" stroke="#000" stroke-miterlimit="10" stroke-width=".74" d="M808.378,932.688"/><g><rect width="65.112" height="6.659" x="974.859" y="1480.008" fill="#9ebff5"/><path fill="#9ebff5" d="M975.044,1496.286h-11.099v-49.204c0-3.065,2.485-5.549,5.549-5.549l0,0
					c3.065,0,5.549,2.484,5.549,5.549V1496.286z"/><path fill="#9ebff5" d="M1050.884,1496.656h-11.099v-49.204c0-3.065,2.484-5.549,5.549-5.549l0,0
					c3.065,0,5.549,2.484,5.549,5.549V1496.656z"/></g><g><path fill="#569ce8" d="M968.52,834.888c-200.682,0-200.682-353.89,0-353.89
			C1168.754,480.998,1168.754,834.888,968.52,834.888z M967.967,555.763c-75.406,0-70.366,204.359,0,204.359
			C1043.315,760.122,1040.669,555.763,967.967,555.763z"/><path fill="#fff" d="M876.984,541.611c18.703-28.376,50.357-48.514,84.549-51.413c0,0,6.09-0.302,6.09-0.302
				c2.923-0.067,6.21,0.112,9.132,0.211c2.169,0.233,5.395,0.563,7.557,0.809c1.159,0.156,6.242,1.171,7.456,1.376
				c19.465,4.336,37.831,14.054,52.802,26.755c-16.53-8.703-33.335-15.794-51.354-19.139
				C949.214,491.342,907.945,510.992,876.984,541.611L876.984,541.611z"/><path fill="#fff" d="M1030.822,804.162c20.826-14.175,37.13-34.129,48.769-56.276
				c8.104-15.452,13.641-31.528,18.919-48.335c0.083,10.932-1.578,21.863-4.542,32.482
				C1085.399,762.96,1062.396,794.356,1030.822,804.162L1030.822,804.162z"/><path fill="#fff" d="M862.626,769.292c29.251,24.287,60.826,43.095,98.239,51.612
				c-3.596,0.398-7.226,0.519-10.849,0.432C915.811,820.006,880.447,798.334,862.626,769.292L862.626,769.292z"/><path fill="#0078e5" d="M985.126,839.926h-0.492h-2.838h-15.118h-1.58c-2.581,0-4.673-2.092-4.673-4.673l0,0
			c0-0.147,0.007-0.293,0.02-0.437c0.22-2.376,2.219-4.236,4.653-4.236h20.027c2.581,0,4.673,2.092,4.673,4.673l0,0
			C989.799,837.834,987.706,839.926,985.126,839.926z"/><path fill="#569ce8" d="M966.678,839.926c0,0-4.235,9.881-6.682,14.964c-0.029,0.061-0.045,0.12-0.051,0.177
			c-0.042,0.443,0.565,0.749,0.881,0.336c0.859-1.125,1.951-2.242,4.381-2.242c4.412,0,3.676,5.147,8.088,5.147
			c4.412,0,2.941-5.882,6.618-5.882c2.063,0,4.359,1.621,5.975,3.044c0.41,0.361,0.992,0.065,1.035-0.398
			c0.009-0.09-0.003-0.187-0.041-0.287c-1.309-3.458-3.259-9.324-2.936-12.834c0.076-0.826,0.278-1.522,0.644-2.025
			c-6.237,0-10.158-2.614-13.387-2.614C969.59,837.312,968.149,837.965,966.678,839.926z"/></g><g><path fill="#569ce8" d="M669.589,600.313c95.2-29.536,92.014,61.75,104.924,167.708
			c1.258,10.323,10.746,17.612,21.043,16.154l2.34-0.331c22.223-3.146,43.44,12.063,46.298,34.325
			c2.705,21.068-12.428,34.74-43.826,41.512c-7.132,1.539-11.903,8.281-10.88,15.505l1.703,12.026
			c3.414,24.116-12.94,46.658-36.948,50.763c-48.329,8.263-51.112-15.041-56.573-55.295c-0.588-4.336-4.596-7.365-8.928-6.752
			l-114.858,16.261c-14.757,2.089-29.911-2.454-40.412-13.03c-43.737-44.052,28.006-142.511,88.324-241.412
			C632.678,619.902,649.626,606.507,669.589,600.313z M668.534,710.602l-47.307,89.635c-2.05,3.884,1.165,8.455,5.513,7.839
			l58.819-8.327c2.942-0.417,4.99-3.14,4.573-6.082l-11.511-81.307C677.889,707.193,670.97,705.987,668.534,710.602z"/><path fill="#fff" d="M562.26,880.309c-20.309-0.98-36.02-19.257-35.559-39.43c0.014-2.807,0.859-6.051,1.763-8.691
				c1.729-5.11,3.663-9.948,5.711-14.775c6.229-14.442,13.105-28.473,21.545-41.831c-5.18,21.423-13.733,41.717-20.508,62.554
				c-1.518,7.889,0.752,16.313,4.565,23.359C544.522,870.256,553.032,876.579,562.26,880.309L562.26,880.309z"/><path fill="#fff" d="M789.435,795.319c4.466-3.881,10.678-5.039,16.486-5.202c12.451-0.232,24.037,8.069,28.289,19.811
				c2.111,5.54,2.925,11.348,2.243,17.06c-3.975-7.427-7.122-14.081-12.586-20C815.451,797.541,801.799,794.388,789.435,795.319
				L789.435,795.319z"/><path fill="#fff" d="M674.864,607.484c35.289-12.458,58.362-2.63,69.047,33.828c2.637,9.267,4.167,18.779,3.975,28.341
				c-5.144-14.353-10.043-28.295-17.758-41.232c-1.18-1.821-2.377-3.735-3.716-5.447
				C714.824,606.175,693.219,607.664,674.864,607.484L674.864,607.484z"/><path fill="#fff" d="M708.163,886.583c3.374,11.31,6.743,22.826,14.185,31.649
				c7.495,9.125,18.691,11.573,30.429,12.767c-5.756,2.675-12.369,3.685-19.063,2.661
				C712.694,930.233,703.198,905.387,708.163,886.583L708.163,886.583z"/><path fill="#0078e5" d="M761.317,944.181l-0.487,0.069l-2.81,0.398l-14.969,2.119l-1.564,0.221
			c-2.555,0.362-4.92-1.416-5.282-3.972v0c-0.021-0.146-0.034-0.291-0.041-0.435c-0.115-2.383,1.604-4.506,4.013-4.847l19.829-2.807
			c2.555-0.362,4.92,1.416,5.282,3.972l0,0C765.651,941.454,763.873,943.819,761.317,944.181z"/><path fill="#569ce8" d="M743.052,946.767c0,0-2.808,10.377-4.518,15.753c-0.02,0.064-0.028,0.125-0.026,0.183
			c0.021,0.444,0.665,0.662,0.919,0.209c0.693-1.235,1.617-2.493,4.024-2.834c4.368-0.618,4.362,4.581,8.73,3.962
			c4.368-0.618,2.088-6.237,5.728-6.752c2.043-0.289,4.543,0.994,6.343,2.177c0.456,0.3,0.991-0.075,0.969-0.54
			c-0.004-0.091-0.03-0.185-0.081-0.278c-1.78-3.24-4.534-8.775-4.706-12.295c-0.041-0.829,0.062-1.546,0.354-2.095
			c-6.175,0.874-10.425-1.164-13.621-0.712C745.568,943.77,744.233,944.619,743.052,946.767z"/></g><g><path fill="#569ce8" d="M1432.929,629.771c91.048,40.567,28.461,107.097-31.699,195.27
			c-5.861,8.59-3.534,20.326,5.169,26.02l1.978,1.294c18.782,12.288,24.705,37.712,12.175,56.334
			c-11.859,17.623-32.251,17.923-60.321,2.312c-6.377-3.546-14.409-1.623-18.403,4.483l-6.65,10.164
			c-13.335,20.382-40.494,26.546-61.25,13.801c-41.783-25.655-28.509-45.01-6.072-78.874c2.417-3.648,1.401-8.568-2.26-10.964
			l-97.074-63.509c-12.472-8.159-20.87-21.568-21.791-36.443c-3.836-61.958,115.024-88.675,225.584-123.258
			C1392.263,620.16,1413.836,621.265,1432.929,629.771z M1359.414,711.992l-94.67,36.195c-4.102,1.568-4.699,7.124-1.024,9.529
			l49.712,32.523c2.487,1.627,5.822,0.93,7.449-1.557l44.958-68.718C1368.695,715.597,1364.288,710.128,1359.414,711.992z"/><path fill="#fff" d="M1167.616,769.505c-14.622-14.128-14.383-38.229-0.734-53.091
				c1.861-2.101,4.636-3.982,7.056-5.372c4.67-2.702,9.313-5.064,14.036-7.342c14.206-6.75,28.627-12.766,43.78-17.243
				c-18.02,12.69-37.832,22.308-56.664,33.506c-6.343,4.93-10.191,12.76-11.97,20.572
				C1160.908,750.252,1163.137,760.616,1167.616,769.505L1167.616,769.505z"/><path fill="#fff" d="M1394.449,855.403c5.917,0.027,11.351,3.253,15.825,6.959c9.513,8.036,12.751,21.916,8.205,33.548
				c-2.066,5.557-5.284,10.46-9.562,14.304c1.908-8.205,3.93-15.283,3.725-23.335
				C1412.543,874.227,1404.358,862.855,1394.449,855.403L1394.449,855.403z"/><path fill="#fff" d="M1432.166,638.64c34.745,13.903,45.612,36.506,29.605,70.961
				c-4.128,8.706-9.25,16.866-15.698,23.928c5.597-14.182,11.107-27.895,13.837-42.709c0.314-2.147,0.676-4.375,0.798-6.545
				C1463.072,664.005,1445.847,650.878,1432.166,638.64L1432.166,638.64z"/><path fill="#fff" d="M1273.17,870.427c-7.059,15.322-15.032,32.598-6.482,48.637
				c2.625,4.916,6.462,9.469,10.736,14.174c-6.091-1.784-11.729-5.385-16.086-10.569
				C1247.791,906.19,1257.03,881.326,1273.17,870.427L1273.17,870.427z"/><path fill="#0078e5" d="M1275.153,948.779l-0.412-0.269l-2.375-1.554l-12.651-8.277l-1.322-0.865
			c-2.16-1.413-2.765-4.309-1.352-6.469l0,0c0.081-0.123,0.166-0.241,0.256-0.354c1.485-1.868,4.177-2.33,6.213-0.998l16.759,10.964
			c2.16,1.413,2.765,4.309,1.352,6.469l0,0C1280.209,949.586,1277.313,950.192,1275.153,948.779z"/><path fill="#569ce8" d="M1259.716,938.679c0,0-8.953,5.95-13.784,8.864c-0.058,0.035-0.104,0.076-0.14,0.121
			c-0.277,0.348,0.063,0.936,0.553,0.763c1.335-0.471,2.859-0.808,4.894,0.523c3.692,2.415,0.259,6.32,3.95,8.735
			c3.692,2.415,5.682-3.312,8.758-1.299c1.727,1.13,2.76,3.743,3.334,5.819c0.146,0.526,0.794,0.597,1.084,0.233
			c0.057-0.071,0.1-0.159,0.123-0.263c0.798-3.61,2.377-9.586,4.569-12.347c0.516-0.65,1.066-1.121,1.648-1.342
			c-5.219-3.415-7.069-7.749-9.771-9.517C1263.584,938.085,1262.02,937.843,1259.716,938.679z"/></g><g><path fill="#ffc931" d="M1033.767,1432.445c-0.549,1.375-1.37,2.437-2.499,2.796c-0.38,0.118-0.78,0.154-1.185,0.108
			c-3.073-0.287-6.716-4.69-7.619-7.553c-0.026-0.077-0.046-0.154-0.067-0.236c2.73-2.714,5.018-6.137,6.84-9.928
			c2.253,1.55,4.32,4.402,4.967,6.46C1034.87,1426.205,1034.799,1429.869,1033.767,1432.445z"/><ellipse cx="1035.517" cy="1441.85" fill="#ffc931" rx="6.157" ry="9.749" transform="rotate(-17.522 1035.287 1441.807)"/><ellipse cx="1041.161" cy="1458.269" fill="#ffc931" rx="6.157" ry="9.749" transform="rotate(-17.522 1040.93 1458.225)"/><path fill="#ffc931" d="M1044.237,1471.017c1.837,3.545,4.638,5.568,3.89,8.083c1.109-1.184,1.522-2.576,1.484-3.722
			c0.733,1.353,0.833,2.466,0.833,2.466s3.922-4.46-1.305-9.798c-3.433-2.565-4.716-1.53-5.189-0.222
			C1043.575,1468.869,1043.726,1470.031,1044.237,1471.017z"/><path fill="#ffc931" d="M990.999,1425.213c-1.529,2.519-4.233,5.172-6.593,5.393c-0.405,0.046-0.806,0.01-1.185-0.108
			c-1.129-0.359-1.95-1.421-2.499-2.796c-1.031-2.576-1.103-6.239-0.436-8.353c0.58-1.837,2.289-4.31,4.254-5.926
			C986.104,1417.799,988.249,1421.873,990.999,1425.213z"/><ellipse cx="978.973" cy="1437.107" fill="#ffc931" rx="9.749" ry="6.157" transform="rotate(-72.482 979.007 1437.155)"/><ellipse cx="976.049" cy="1453.125" fill="#ffc931" rx="6.157" ry="9.749" transform="rotate(-.81 972.11 1450.703)"/><path fill="#ffc931" d="M977.123,1466.195c-0.633,3.942-2.659,6.741-1.161,8.895c-1.424-0.777-2.253-1.969-2.576-3.07
			c-0.272,1.515-0.019,2.603-0.019,2.603s-5.122-3.006-1.832-9.713c2.456-3.512,3.998-2.931,4.858-1.837
			C977.079,1463.948,977.299,1465.099,977.123,1466.195z"/><path fill="#ffdd92" d="M979.873,1431.391c-2.802,1.632-3.332,4.839-3.589,7.785c-0.072,0.421-0.023,1.002-0.243,1.378
				c-0.018-0.002-0.035-0.018-0.043-0.032c-1.609-3.391,0.483-7.85,3.834-9.225C979.891,1431.274,979.933,1431.362,979.873,1431.391
				L979.873,1431.391z"/><path fill="#ffdd92" d="M975.017,1446.566c-2.833,4.337-1.114,9.447,0.555,13.86c0.022,0.05-0.05,0.099-0.087,0.054
				c-1.789-1.843-2.756-4.35-2.768-6.911c-0.059-2.542,0.649-5.118,2.221-7.068C974.978,1446.455,975.058,1446.511,975.017,1446.566
				L975.017,1446.566z"/><path fill="#ffdd92" d="M1042.576,1466.201c1.824-4.824,0.228-9.708-2.556-13.796c-0.032-0.043,0.026-0.106,0.073-0.073
				c2.185,1.418,3.573,3.897,3.789,6.485c0.347,2.563-0.127,5.162-1.213,7.426
				C1042.639,1466.299,1042.552,1466.265,1042.576,1466.201L1042.576,1466.201z"/><path fill="#ffdd92" d="M1037.445,1447.728c0.909-2.504,0.849-5.426-0.391-7.784c-0.675-1.287-1.607-2.454-2.508-3.589
				c-0.397-0.448-0.81-0.892-1.194-1.396c-0.033-0.04,0.017-0.105,0.065-0.078c2.338,1.044,4.134,3.106,4.783,5.592
				c0.743,2.446,0.452,5.106-0.662,7.299C1037.507,1447.829,1037.416,1447.79,1037.445,1447.728L1037.445,1447.728z"/></g><g><path fill="#ff3131" d="M1007.26,300.432c0,0,308.644,2.517,495.984,8c144,4.215,194.553-8,194.553-8
			s-6.128,33.662-33.702,57.406c26.042,28.34,33.702,54.007,33.702,54.007s-397.586-34.327-690.538-15.443
			C1007.26,369.328,1007.26,300.432,1007.26,300.432z"/><polygon fill="none" stroke="#000" stroke-miterlimit="10" stroke-width="2" points="912.855 347.896 1007.26 300.432 1007.26 396.402"/><path fill="#fff" d="M1077.265,349.058l-8.313-0.168l-0.375,18.606l-7.521-0.151l0.924-45.856l15.835,0.319
					c10.888,0.219,16.106,6.529,15.956,13.985C1093.639,342.325,1089.208,349.299,1077.265,349.058z M1077.388,342.922
					c5.873,0.118,8.57-2.666,8.663-7.284c0.096-4.751-2.487-7.575-8.36-7.693l-8.313-0.168l-0.303,14.978L1077.388,342.922z"/><path fill="#fff" d="M1128.152,359.325l-19.201-0.387l-3.488,9.302l-7.851-0.158l17.355-45.591l8.709,0.176
					l15.503,46.253l-7.918-0.159L1128.152,359.325z M1119.138,331.683l-7.952,21.16l14.978,0.302L1119.138,331.683z"/><path fill="#fff" d="M1189.194,337.255l-9.039-0.183c-2.348-4.668-6.655-7.065-12.132-7.176
					c-9.105-0.184-15.835,6.15-16.038,16.245c-0.203,10.096,6.264,16.76,15.369,16.943c8.312,0.168,13.626-4.741,14.904-12.439
					l-17.222-0.347l0.121-6.004l25.271,0.51l-0.119,5.872c-1.6,10.595-10.754,19.453-23.092,19.204
					c-12.934-0.261-23.23-10.104-22.952-23.895c0.276-13.724,10.962-23.212,23.896-22.951
					C1177.727,323.228,1185.878,328.211,1189.194,337.255z"/><path fill="#fff" d="M1223.453,330.815l-17.814-0.359l-0.271,13.461l15.836,0.319l-0.123,6.136l-15.836-0.319
					l-0.284,14.054l17.814,0.359l-0.123,6.137l-25.337-0.511l0.926-45.922l25.337,0.511L1223.453,330.815z"/><path fill="#fff" d="M1287.649,325.972l-0.926,45.922l-7.521-0.151l-21.941-34.7l-0.69,34.244l-7.521-0.151
					l0.926-45.922l7.521,0.151l21.942,34.634l0.689-34.178L1287.649,325.972z"/><path fill="#fff" d="M1317.53,372.977c-12.933-0.261-23.229-10.172-22.95-23.962
					c0.276-13.724,10.963-23.211,23.896-22.95c13.064,0.263,23.229,10.171,22.952,23.895
					C1341.149,363.75,1330.594,373.24,1317.53,372.977z M1317.661,366.445c9.104,0.183,15.836-6.281,16.045-16.641
					s-6.26-16.959-15.364-17.142c-9.105-0.184-15.833,6.148-16.042,16.508S1308.556,366.262,1317.661,366.445z"/><path fill="#fff" d="M1346.906,327.232l32.001,0.645l-0.123,6.136l-12.207-0.246l-0.801,39.721l-7.521-0.151
					l0.801-39.721l-12.272-0.247L1346.906,327.232z"/><path fill="#fff" d="M1403.653,328.376l26.986,0.544l-0.123,6.136l-19.465-0.393l-0.273,13.526l15.176,0.306
					l-0.123,6.136l-15.176-0.306l-0.404,20.059l-7.521-0.151L1403.653,328.376z"/><path fill="#fff" d="M1457.619,375.801c-12.933-0.261-23.229-10.172-22.95-23.962
					c0.276-13.724,10.963-23.211,23.896-22.95c13.064,0.263,23.228,10.171,22.951,23.895
					C1481.237,366.573,1470.683,376.063,1457.619,375.801z M1457.75,369.268c9.104,0.184,15.836-6.281,16.045-16.641
					s-6.26-16.958-15.364-17.142c-9.105-0.184-15.833,6.149-16.042,16.509S1448.645,369.085,1457.75,369.268z"/><path fill="#fff" d="M1489.304,330.102l7.521,0.151l-0.589,29.229c-0.144,7.126,3.812,10.571,10.146,10.699
					c6.401,0.129,10.494-3.154,10.638-10.28l0.589-29.229l7.521,0.151l-0.586,29.098c-0.235,11.678-8.793,17.051-18.36,16.857
					c-9.634-0.194-17.702-5.901-17.467-17.579L1489.304,330.102z"/><path fill="#fff" d="M1572.577,331.715l-0.926,45.922l-7.521-0.151l-21.941-34.7l-0.69,34.244l-7.522-0.151
					l0.926-45.922l7.522,0.151l21.942,34.634l0.689-34.178L1572.577,331.715z"/><path fill="#fff" d="M1621.334,355.866c-0.285,14.119-10.092,22.568-24.806,22.272l-14.979-0.302l0.924-45.856
					l14.979,0.302C1612.166,332.578,1621.62,341.68,1621.334,355.866z M1596.652,372.002c10.82,0.218,16.752-5.866,16.963-16.291
					c0.211-10.491-5.465-17.075-16.285-17.293l-7.456-0.15l-0.678,33.584L1596.652,372.002z"/><path fill="none" stroke="#000" stroke-miterlimit="10" stroke-width="2" d="M913.183,348.067h-129.73
				c-69.88,0-123.63,2.1-148.05,3.26c-5,0.24-8.77,0.44-11.19,0.58c-0.01,0-0.02,0-0.03,0c-2.1,0.11-3.19,0.18-3.19,0.18"/><path fill="#ffffc8" stroke="#000" stroke-linecap="round" stroke-linejoin="round" stroke-width=".467" d="M594.676,345.543
					l-9.125-18.671c-1.139-2.342-2.799-4.055-1.599-6.68c10.102-2.723,14.911,0.003,22.82,2.047l13.995,15.296L594.676,345.543z"/><path fill="#ffffc8" stroke="#000" stroke-linecap="round" stroke-linejoin="round" stroke-width=".402" d="
					M595.018,320.359c0.461,0.935,15.403,21.38,15.403,21.38"/><path fill="#ff3131" fill-rule="evenodd" stroke="#000" stroke-linecap="round" stroke-linejoin="round" stroke-width=".402" d="
					M435.051,390.028c2.33,5.037,6.904,3.924,10.65,0.369C442.92,390.845,437.749,391.061,435.051,390.028z" clip-rule="evenodd"/><path fill="#ff3131" stroke="#000" stroke-linecap="round" stroke-linejoin="round" stroke-width=".402" d="
					M442.604,378.113c-6.106-0.782-14.656,7.692-9.839,10.932c6.614,3.457,14.714,0.794,19.215,0.171
					c6.615-0.919,7.103-7.24,7.103-7.24L442.604,378.113z"/><path fill="#ff3131" stroke="#000" stroke-linecap="round" stroke-linejoin="round" stroke-width=".402" d="
					M457.743,385.657c-8.715,2.242-21.315,4.07-25.902-0.868"/><path fill="#ff3131" stroke="#000" stroke-linecap="round" stroke-linejoin="round" stroke-width=".461" d="M453.19,289.038
					l4.121,49.133l-6.109,1.856c0,0-6.241-59.399-6.084-60.93L453.19,289.038z"/><rect width="3.659" height="29.975" x="508.283" y="372.133" fill="#ff3131" stroke="#000" stroke-linecap="round" stroke-linejoin="round" stroke-width=".402" transform="rotate(-86.417 510.13 387.139)"/><rect width="3.156" height="29.573" x="497.618" y="378.708" fill="#ff3131" stroke="#000" stroke-linecap="round" stroke-linejoin="round" stroke-width=".402" transform="rotate(-26.552 499.26 393.529)"/><path fill="#ff3131" fill-rule="evenodd" stroke="#000" stroke-linecap="round" stroke-linejoin="round" stroke-width=".402" d="
					M499.019,413.747c1.869,5.237,6.547,4.507,10.58,1.301C506.786,415.27,501.622,415.027,499.019,413.747z" clip-rule="evenodd"/><path fill="#ffffc8" d="M472.69,321.884l-34.248-46.743l-32.453-55.188c0,0-3.111-4.604,0.969-7.852
					c6.566-5.208,26.159,0.946,26.159,0.946c31.138,36.953,60.205,73.439,90.225,113.967L472.69,321.884z"/><path fill="#ff3131" d="M610.3,361.515l-53.259,12.715l-82.642,10.969c-12.193-1.274-24.869-3.08-37.456-7.149
					c-3.48-1.851-6.844-3.056-9.641-5.697c-3.346-3.302-5.382-6.504-7.438-10.806l-1.083-8.84
					c-0.273-3.977,1.822-9.425,6.264-11.401c9.955-3.317,18.984-5.055,30.292-5.838c5.766-5.711,9.874-9.777,17.343-13.566
					l49.667,4.544l16.273,10.299l37.264,5.419c0,0,26.112-1.119,32.663-2.167c4.334-1.991,37.428-27.555,37.428-27.555
					c8.301-1.599,13.235,0.666,19.287,2.435l-31.74,38.75c1.406,2.077-0.469,3.251-4.432,3.418L610.3,361.515z"/><path fill="none" stroke="#000" stroke-linecap="round" stroke-linejoin="round" stroke-width=".402" d="M606.184,356.846
					l4.116,4.669"/><path fill="#ffffc8" stroke="#000" stroke-linecap="round" stroke-linejoin="round" stroke-width=".402" d="
					M606.254,356.724c2.1-3.106,22.818,0.309,22.818,0.309l0,0l10.031,2.423c0,0,19.267,26.368,17.69,28.639
					c-3.279,2.293-12.757,2.872-19.265,0.726c-6.906-4.851-23.446-24.08-31.344-31.976L606.254,356.724z"/><path fill="none" stroke="#000" stroke-linecap="round" stroke-linejoin="round" stroke-width=".402" d="M623.589,356.214
					l26.766,33.341"/><path fill="#ff3131" stroke="#000" stroke-linecap="round" stroke-linejoin="round" stroke-width=".402" d="
					M656.107,316.427c-0.743,0.733-35.116,35.662-35.116,35.662"/><path fill="#ff3131" stroke="#000" stroke-linecap="round" stroke-linejoin="round" stroke-width=".402" d="
					M575.804,342.303c-0.628-0.359-21.118,1.335-21.118,1.335c-1.848,0.032-2.449,1.448,0.084,1.878l78.227,8.135"/><path fill="#ffffc8" stroke="#000" stroke-linecap="round" stroke-linejoin="round" stroke-width=".402" d="
					M406.111,215.971c1.617-4.448,26.935-0.047,26.935-0.047"/><path fill="#ffffc8" stroke="#000" stroke-linecap="round" stroke-linejoin="round" stroke-width=".402" d="
					M409.498,213.693l36.489,60.158c0,0,27.758,34.927,35.151,46.541c-2.546-0.205-4.074-0.245-8.388,1.387"/><path fill="#ffffc8" stroke="#000" stroke-linecap="round" stroke-linejoin="round" stroke-width=".402" d="
					M506.908,321.532c-8.024-2.086-17.551-2.717-26.276-2.402"/><path fill="none" stroke="#000" stroke-linecap="round" stroke-linejoin="round" stroke-width=".402" d="M479.524,277.811
					l-48.767-62.014"/><path fill="#ff3131" stroke="#000" stroke-linecap="round" stroke-linejoin="round" stroke-width=".402" d="
					M466.139,371.052c-9.219,0.773-29.922-0.318-34-6.146"/><path fill="#ff3131" stroke="#000" stroke-linecap="round" stroke-linejoin="round" stroke-width=".402" d="
					M422.556,342.824c11.934,0.918,22.307,34.173,4.559,29.491"/><path fill="#ff3131" stroke="#000" stroke-linecap="round" stroke-linejoin="round" stroke-width=".402" d="
					M452.704,335.861c12.08,5.725,20.923,23.795,14.799,33.331c-4.29,6.694-8.508,11.925-11.578,13.203"/><path fill="#ff3131" stroke="#000" stroke-linecap="round" stroke-linejoin="round" stroke-width=".402" d="
					M481.345,378.518c0.509-0.89,14.273-23.912,14.273-23.912"/><path fill="none" stroke="#000" stroke-linecap="round" stroke-linejoin="round" stroke-width=".402" d="M479.093,320.242
					l16.986,23.674"/><path fill="none" stroke="#000" stroke-linecap="round" stroke-linejoin="round" stroke-width=".402" d="M477.816,324.259
					l14.697,20.305"/><path fill="#ff3131" stroke="#000" stroke-linecap="round" stroke-linejoin="round" stroke-width=".402" d="M455.467,335.24
					c9.729,3.964,16.311,19.143,18.649,23.074c3.745,2.604,7.305,5.126,13.367,4.932c2.691-4.019,2.639-4.049,6.832-11.1"/><path fill="#ff3131" stroke="#000" stroke-linecap="round" stroke-linejoin="round" stroke-width=".402" d="
					M459.068,335.099c6.526-3.841,9.505,0.872,16.169,7.808c6.748,7.031,8.268,14.985,5.829,17.55"/><path fill="none" stroke="#000" stroke-linecap="round" stroke-linejoin="round" stroke-width=".402" d="M480.705,339.944
					l-9.218-1.171"/><path fill="none" stroke="#000" stroke-linecap="round" stroke-linejoin="round" stroke-width=".402" d="M475.392,325.907
					l-6.398,10.259"/><path fill="none" stroke="#000" stroke-linecap="round" stroke-linejoin="round" stroke-width=".402" d="M469.806,329.845
					l-2.884,4.882"/><path fill="#ff3131" fill-rule="evenodd" stroke="#000" stroke-linecap="round" stroke-linejoin="round" stroke-width=".402" d="
					M489.099,323.276c2.843,0.213,7.949,1.164,11.29,1.638c1.481,0.245,6.447,3.385,2.989,4.048
					c-4.102-0.562-8.839-0.538-13.547-1.539C483.456,323.547,488.169,322.837,489.099,323.276L489.099,323.276z" clip-rule="evenodd"/><path fill="#ff3131" d="M505.909,401.129c-4.034-0.315-12.095,6.979-9.585,10.892c3.627,3.255,15.751,3.841,21.194,1.326
					c4.566-2.113,7.594-6.357,4.67-8.168c-3.715-0.874-7.45-1.874-10.247-3.543C510.11,400.544,508.051,400.988,505.909,401.129
					L505.909,401.129z"/><path fill="#ff3131" stroke="#000" stroke-linecap="round" stroke-linejoin="round" stroke-width=".402" d="M521.284,410.73
					c-7.865,1.362-23.352,0.868-24.251-3.676"/><path fill="#ff3131" fill-rule="evenodd" stroke="#000" stroke-linecap="round" stroke-linejoin="round" stroke-width=".402" d="
					M497.159,356.205c-0.636,1.234-3.285,5.787-3.841,6.881c-0.456,0.92,0.027,1.127,0.877,1.382
					c2.563,0.539,7.637,0.453,9.555,0.785" clip-rule="evenodd"/><path fill="#ff3131" fill-rule="evenodd" stroke="#000" stroke-linecap="round" stroke-linejoin="round" stroke-width=".402" d="
					M496.994,334.621c2.843,0.213,7.999,0.266,11.34,0.74c1.481,0.245,6.659,3.622,3.201,4.284
					c-4.102-0.562-9.101,0.123-13.819-0.861C491.378,334.884,496.091,334.174,496.994,334.621z" clip-rule="evenodd"/><path fill="#ff3131" stroke="#000" stroke-linecap="round" stroke-linejoin="round" stroke-width=".402" d="
					M425.539,363.772c6.399,7.641,8.42,1.109,4.178-5.971"/><path fill="#ff3131" stroke="#000" stroke-linecap="round" stroke-linejoin="round" stroke-width=".402" d="M421.32,351.264
					c-0.369-2.434,1.567-5.982,4.581-0.762"/><path fill="#ff3131" fill-rule="evenodd" stroke="#000" stroke-linecap="round" stroke-linejoin="round" stroke-width=".402" d="
					M524.261,327.795c1.376,0.833,14.256,8.845,14.256,8.845l5.377,6.432l-12.658-7.144L524.261,327.795L524.261,327.795z" clip-rule="evenodd"/><path fill="#ff3131" fill-rule="evenodd" stroke="#000" stroke-linecap="round" stroke-linejoin="round" stroke-width=".402" d="
					M534.338,339.252c0.172,0.145,10.235,4.902,11.085,6.129c7.177,10.17,2.666,11.458-0.265,13.465
					c-1.406-1.429-6.548-9.162-6.548-9.162s3.411,0.676-1.637-6.818C535.317,340.414,534.841,340.396,534.338,339.252
					L534.338,339.252z" clip-rule="evenodd"/><path fill="#9ee8e8" fill-rule="evenodd" stroke="#000" stroke-linecap="round" stroke-linejoin="round" stroke-width=".402" d="
					M479.123,320.19c-6.508,0.123-16.022,7.003-23.607,15.125c10.342,4.431,15.795,18.872,18.527,23.004
					c5.053,4.163,9.19,4.907,13.284,4.955l6.922-10.932l-1.76-2.835c-0.678-0.92-0.384-1.678,0.143-2.72c0,0,1.254-1.344,2.16-1.915
					c0.514-0.332,1.337-0.88,1.337-0.88L479.123,320.19L479.123,320.19z" clip-rule="evenodd" enable-background="new" opacity=".84"/><path fill="#ffffc8" d="M538.485,349.658l84.905,118.938c0,0-24.345,3.82-33.794-1.119
					c-1.531-0.806-57.693-63.412-57.693-63.412s-36.641-50.82-39.827-55.05L538.485,349.658z"/><path fill="#ffffc8" stroke="#000" stroke-linecap="round" stroke-linejoin="round" stroke-width=".402" d="M492.083,348.88
					c-0.533-2.227,3.282-4.769,5.609-5.477c3.961,4.858,37.708,52.681,37.708,52.681l57.229,66.411"/><path fill="#ffffc8" stroke="#000" stroke-linecap="round" stroke-linejoin="round" stroke-width=".402" d="
					M588.462,464.073c1.734-5.099,28.99-1.211,28.99-1.211"/><path fill="none" stroke="#000" stroke-linecap="round" stroke-linejoin="round" stroke-width=".402" d="M612.595,461.961
					l-45.428-64.574"/><path fill="none" stroke="#000" stroke-linecap="round" stroke-linejoin="round" stroke-width=".402" d="M524.958,346.95
					c-8.041-2.096-17.541-2.734-26.293-2.412"/><path fill="#ffffc8" stroke="#000" stroke-linecap="round" stroke-linejoin="round" stroke-width=".402" d="M414.22,357
					c3.627,3.255,9.324,7.507,12.845,6.209c3.972-1.48,3.254-10.714,0.329-12.525C424.27,349.708,417.019,352.672,414.22,357
					L414.22,357z"/></g></svg>