<svg xmlns="http://www.w3.org/2000/svg" data-name="Layer 1" viewBox="0 0 800 800"><g data-name="Objects 4"><circle cx="407.44" cy="441.1" r="316.18" fill="#fbc9c2"/><path fill="#f8f29a" d="m342.97 267.91-225.7 441.55h583.5L474.91 267.77l-131.94.14z"/><ellipse cx="409.02" cy="271.22" fill="#fde7a0" rx="67.82" ry="14.53"/><path fill="#fad00a" d="M476.84 271.22c0-8-30.37-14.53-67.82-14.53s-67.82 6.5-67.82 14.53c0 4.28 8.64 8.13 22.39 10.79a83 83 0 0 1 15.06-8.81c22.78-10.17 51.85-9.69 73.66 3.4a55.87 55.87 0 0 1 6.2 4.55c11.36-2.6 18.33-6.09 18.33-9.93Z"/><path fill="#2c130e" d="M409 288.64c-18.31 0-35.56-1.53-48.56-4.32-14.9-3.19-22.15-7.48-22.15-13.1s7.25-9.91 22.15-13.11c13-2.78 30.25-4.32 48.56-4.32s35.56 1.54 48.56 4.32c14.9 3.2 22.15 7.48 22.15 13.11s-7.25 9.91-22.15 13.1c-12.98 2.79-30.23 4.32-48.56 4.32Zm0-29.06c-17.92 0-34.73 1.49-47.35 4.19-14.59 3.13-17.57 6.67-17.57 7.45s3 4.32 17.57 7.45c12.62 2.7 29.43 4.19 47.35 4.19s34.73-1.49 47.35-4.19c14.59-3.13 17.57-6.67 17.57-7.45s-3-4.32-17.57-7.45c-12.6-2.7-29.41-4.19-47.35-4.19Z"/><circle cx="409.02" cy="253.73" r="23.75" fill="#fff7e4"/><path fill="#2c130e" d="M409 280.36a26.64 26.64 0 1 1 26.64-26.63A26.67 26.67 0 0 1 409 280.36Zm0-47.49a20.86 20.86 0 1 0 20.85 20.86A20.88 20.88 0 0 0 409 232.87Z"/><path fill="#a0c39d" d="M409.1 256.69c31.91 0 58.66 4.72 65.89 11.08L416.76 177a10.93 10.93 0 0 0-18.55.22l-55.16 90.67c6.95-6.41 33.95-11.2 66.05-11.2Z"/><path fill="#d9e5d6" d="M438 227.75c2.37 4.87 2.69 9.61.7 10.57s-5.51-2.2-7.88-7.08-2.69-9.6-.71-10.57 5.49 2.2 7.89 7.08Z"/><path fill="#77ae7a" d="M442 216.38 416.76 177a10.93 10.93 0 0 0-18.55.22l-28.94 47.57a84.21 84.21 0 0 1 32.16-12.66 78 78 0 0 1 40.57 4.25Z"/><path fill="#2c130e" d="M343.05 270.8a2.85 2.85 0 0 1-1.83-.65 2.89 2.89 0 0 1-.64-3.74l55.16-90.68a13.75 13.75 0 0 1 11.65-6.64h.17a13.75 13.75 0 0 1 11.63 6.36l58.23 90.76a2.89 2.89 0 0 1-4.34 3.73c-5.85-5.15-29.71-10.36-64-10.36a257.31 257.31 0 0 0-42 3.16c-15.76 2.71-20.72 6-22.12 7.3a2.88 2.88 0 0 1-1.91.76Zm64.51-95.92h-.1a8 8 0 0 0-6.78 3.86l-49.88 82c12.57-4.3 33.91-7 58.3-7 24 0 45.2 2.6 57.85 6.8l-52.63-82a8 8 0 0 0-6.76-3.66Z"/><path fill="#2c130e" d="M409 174.42a2.89 2.89 0 0 1-2.89-2.89V44.71a2.89 2.89 0 0 1 5.78 0v126.82a2.89 2.89 0 0 1-2.89 2.89Z"/><ellipse cx="409.02" cy="716.42" fill="#fad00a" rx="298.39" ry="41.76"/><ellipse cx="556.05" cy="724.68" fill="#f9a467" rx="58.5" ry="7.08"/><ellipse cx="326.95" cy="713.35" fill="#f9a467" rx="42.34" ry="6.96"/><path fill="#2c130e" d="M130 624.72a19.57 19.57 0 0 1-6-.94c-11.72-3.72-15.31-16.19-18.79-28.25C101.94 584 98.5 572.05 88.4 566c-15.7-9.37-42.83-1.29-80.62 24a2.89 2.89 0 1 1-3.22-4.81c22.33-15 41.42-24.18 56.75-27.42 12.07-2.55 22.18-1.46 30.06 3.24 12 7.2 16 20.84 19.45 32.88 3.34 11.57 6.21 21.56 15 24.34 7.66 2.43 14.79-2.13 24.66-8.44 11.23-7.18 25.19-16.11 45.7-17.46a86.59 86.59 0 0 1 37 6 2.9 2.9 0 0 1-2.09 5.4 80.52 80.52 0 0 0-34.51-5.63c-19 1.25-32.3 9.74-43 16.55-8.29 5.35-15.67 10.07-23.58 10.07Z"/><path fill="#23a9e1" d="M293 642.14 249.12 637a33.63 33.63 0 0 1-29.5-37.31 33.63 33.63 0 0 1 37.32-29.5l43.85 5.13Z"/><path fill="#a0ceee" d="M256.94 570.19a33.65 33.65 0 0 0-34 18.4c8.46 9.13 21 10.84 32.71 11.71 14 .85 28 1.51 42 1.74l3.13-26.72Z"/><path fill="#2c130e" d="M293 645h-.34l-43.85-5.13a36.53 36.53 0 0 1 8.5-72.57l43.85 5.14a2.88 2.88 0 0 1 2.53 3.21l-7.82 66.81a2.93 2.93 0 0 1-1.08 1.94 2.9 2.9 0 0 1-1.79.6Zm-40-72.18a30.74 30.74 0 0 0-3.55 61.28l41 4.8 7.15-61.07-41-4.8a31 31 0 0 0-3.6-.18Z"/><path fill="#23a9e1" d="m352.59 664.13-63.29-7.4a48.56 48.56 0 0 1-42.58-53.87 48.55 48.55 0 0 1 53.87-42.58l63.29 7.41Z"/><path fill="#a0ceee" d="M300.59 560.28a48.55 48.55 0 0 0-53.87 42.58.28.28 0 0 1 0 .09c34.35 17.41 72.06 23.13 110.31 23.2l6.84-58.48Z"/><ellipse cx="315.98" cy="572.76" fill="#fff" rx="3.44" ry="12.91" transform="matrix(.11 -.99 .99 .11 -288.36 823.1)"/><path fill="#fff" d="M285.87 575.34c-3.49.51-6.55-.67-6.84-2.64s2.31-4 5.8-4.48 6.55.67 6.83 2.64-2.3 3.97-5.79 4.48Z"/><path fill="#2c130e" d="M352.59 667h-.33L289 659.6a51.44 51.44 0 1 1 12-102.19l63.29 7.4a2.9 2.9 0 0 1 2.54 3.21l-11.29 96.45a2.91 2.91 0 0 1-2.88 2.56Zm-57.74-104.16a45.66 45.66 0 0 0-5.21 91l60.42 7.07 10.61-90.7-60.42-7.07a46.55 46.55 0 0 0-5.4-.3Z"/><path fill="#2c130e" d="M289.3 659.62a2.9 2.9 0 0 1-2.86-2.43 180.53 180.53 0 0 1 11.48-98 2.89 2.89 0 1 1 5.34 2.22 174.76 174.76 0 0 0-11.1 94.87 2.9 2.9 0 0 1-2.4 3.32 2.38 2.38 0 0 1-.46.02Z"/><ellipse cx="356.91" cy="615.79" fill="#c2ddf4" rx="48.38" ry="15.91" transform="rotate(-83.32 356.938 615.808)"/><path fill="#9cccee" d="M340.23 625.12c-.82 21.37 3.59 37.85 11 38.73 8.39 1 17.57-18.08 21-43.12-10.12 5.39-21.76 8.12-32 4.39Z"/><path fill="#2c130e" d="M351.92 666.78a7.54 7.54 0 0 1-1-.06c-3.94-.46-9.22-3.9-12-17.68-2-9.71-2.23-22.3-.69-35.43s4.68-25.32 8.85-34.32c5.91-12.75 11.84-14.89 15.78-14.42s9.21 3.9 12 17.68c2 9.71 2.23 22.3.69 35.43s-4.68 25.32-8.85 34.32c-5.42 11.7-10.88 14.48-14.78 14.48Zm10-96.18c-3.24 0-7.15 5.92-9.56 11.13-3.92 8.45-6.89 20-8.36 32.55s-1.25 24.47.61 33.61c1.19 5.79 3.74 12.7 7 13.08s7.37-5.74 9.86-11.11c3.92-8.45 6.89-20 8.35-32.55 1.47-12.54 1.25-24.48-.61-33.61-1.18-5.79-3.73-12.7-7-13.08a1.51 1.51 0 0 0-.31-.02Z"/><path fill="#2c130e" d="m408.85 610.65-47.55-5.56a6.29 6.29 0 0 1 1.46-12.5l47.55 5.57a6.29 6.29 0 1 1-1.46 12.49Zm-4.15 35.5-47.56-5.57a6.29 6.29 0 0 1 1.47-12.49l47.55 5.57a6.29 6.29 0 1 1-1.46 12.49Zm389.13 83.22a3 3 0 0 1-1.05-.2c-14.42-5.62-21.9-15.13-29.14-24.32s-14-17.8-27.42-21c-10.06-2.41-16.8-.18-26.12 2.91-8.4 2.78-18.85 6.24-34.91 7.16a145.26 145.26 0 0 1-55.14-7.76 2.89 2.89 0 1 1 1.86-5.48 139.63 139.63 0 0 0 52.94 7.47c15.31-.88 24.94-4.07 33.43-6.88 9.46-3.14 17.63-5.84 29.28-3 15.38 3.68 23.13 13.53 30.63 23.06 6.75 8.58 13.74 17.46 26.69 22.51a2.89 2.89 0 0 1-1 5.59Z"/><path fill="#23a9e1" d="m551.68 707.69 43.72 6.15a33.64 33.64 0 0 0 38-28.61 33.63 33.63 0 0 0-28.62-38l-43.71-6.16Z"/><path fill="#a0ceee" d="m604.78 647.23-43.71-6.16-4.81 34.14c25 8 56.49 13.51 76.63-2.15a33.64 33.64 0 0 0-28.11-25.83Z"/><path fill="#2c130e" d="M600.17 717.07a37.55 37.55 0 0 1-5.17-.36l-43.72-6.16a2.9 2.9 0 0 1-2.46-3.27l9.38-66.61a2.89 2.89 0 0 1 3.27-2.46l43.72 6.15a36.53 36.53 0 0 1-5 72.71ZM555 705.22l40.8 5.78a30.75 30.75 0 0 0 8.58-60.89l-40.85-5.75Z"/><path fill="#23a9e1" d="m488.43 713.84 63.1 8.89a48.56 48.56 0 0 0 54.85-41.31 48.55 48.55 0 0 0-41.31-54.85L502 617.68Z"/><path fill="#a0ceee" d="M606.38 681.42a48.55 48.55 0 0 0-41.31-54.85L502 617.68l-10.09 71.65c28 8.25 57.09 11.67 86.85 4.43 9.26-2.25 19.94-5.56 27.57-11.83 0-.17.06-.34.08-.51Z"/><path fill="#fff" d="M542.48 637.73c-7.09-.79-12.66-3-12.45-4.85s6.13-2.77 13.21-2 12.66 3 12.45 4.85-6.13 2.8-13.21 2Z"/><path fill="#2c130e" d="M558.34 726.1a51.84 51.84 0 0 1-7.21-.51L488 716.7a2.87 2.87 0 0 1-1.91-1.12 2.92 2.92 0 0 1-.56-2.14l13.55-96.16a2.89 2.89 0 0 1 3.27-2.46l63.1 8.89a51.45 51.45 0 0 1-7.14 102.39Zm-66.64-14.72 60.23 8.48a45.66 45.66 0 1 0 12.74-90.42L504.43 621Z"/><path fill="#2c130e" d="M551.53 725.62a2.89 2.89 0 0 1-2.64-4.06A174.69 174.69 0 0 0 562.21 627a2.89 2.89 0 1 1 5.73-.79 180.69 180.69 0 0 1-13.76 97.72 2.9 2.9 0 0 1-2.65 1.69Z"/><ellipse cx="496.52" cy="665.99" fill="#c2ddf4" rx="48.38" ry="15.91" transform="rotate(-81.98 496.544 665.99)"/><path fill="#9cccee" d="M484.38 680a18.84 18.84 0 0 1-4.74-5.28c-1.37 21.46 2.66 38.16 10.13 39.21 6.67.94 14.15-10.88 19-28.38a32 32 0 0 1-24.39-5.55Z"/><path fill="#2c130e" d="M490.53 716.84a8.84 8.84 0 0 1-1.17-.08c-3.92-.55-9.11-4.12-11.6-18-1.75-9.77-1.7-22.35.14-35.44s5.27-25.21 9.66-34.11c6.21-12.61 12.19-14.6 16.11-14s9.12 4.12 11.6 18c1.76 9.76 1.71 22.35-.14 35.44s-5.27 25.2-9.65 34.1c-5.63 11.38-11.06 14.09-14.95 14.09Zm12-95.92c-3.23 0-7.24 5.79-9.75 10.9-4.12 8.36-7.36 19.85-9.12 32.35s-1.82 24.44-.18 33.61c1.05 5.82 3.44 12.79 6.72 13.25s7.5-5.57 10.12-10.88c4.11-8.36 7.35-19.85 9.11-32.35s1.83-24.44.18-33.61c-1.05-5.82-3.43-12.78-6.72-13.25Z"/><path fill="#513b36" d="M505 648.58c-.73 5.23-4 9.09-7.29 8.62s-5.36-5.07-4.62-10.3 4-9.09 7.29-8.62 5.35 5.07 4.62 10.3Z"/><path fill="#2c130e" d="M505 648.89c-.68 4.83-3.3 8.46-5.85 8.11s-4.06-4.57-3.38-9.41 3.3-8.47 5.85-8.11 4.01 4.57 3.38 9.41Z"/><ellipse cx="493.82" cy="684.78" fill="#513b36" rx="9.56" ry="6.02" transform="rotate(-81.98 493.847 684.783)"/><path fill="#2c130e" d="M499.73 685.93c-.68 4.83-3.3 8.46-5.84 8.11s-4.06-4.58-3.38-9.41 3.3-8.47 5.84-8.11 4.06 4.57 3.38 9.41ZM325.76 379.87a4.79 4.79 0 0 1-5.83-3.46l-8.15-32.1a4.8 4.8 0 0 1 3.47-5.83l18.05-4.58a4.8 4.8 0 0 1 5.83 3.47l4.33 17.06a4.81 4.81 0 0 1-3.47 5.84l-13.39 3.4 2.63 10.33a4.8 4.8 0 0 1-3.47 5.87Zm-1.53-25.5 8.75-2.22-2-7.77-8.75 2.22Zm-27.13 32.39A21.23 21.23 0 1 1 312.44 361a21.25 21.25 0 0 1-15.34 25.76Zm-8-31.55a11.32 11.32 0 1 0 13.76 8.19 11.34 11.34 0 0 0-13.77-8.19Zm-46.97 45.5A30.83 30.83 0 1 1 261 386.6a30.61 30.61 0 0 1-18.87 14.11Zm-12.73-50.16a20.92 20.92 0 1 0 25.43 15.13 20.95 20.95 0 0 0-25.43-15.13Zm139.95 13.03a5.05 5.05 0 1 1-6.14-3.65 5 5 0 0 1 6.14 3.65Zm-6.95-6.86a2.71 2.71 0 0 1-3.19-1.63l-14.79-37.41a2.71 2.71 0 0 1 1.86-3.62l9.93-2.53a2.71 2.71 0 0 1 3.36 2.31l4.85 39.92a2.7 2.7 0 0 1-2.02 2.96ZM376.52 478a7.44 7.44 0 0 1-8.88-5.64l-2.84-12.76-46.5 10.4a7.44 7.44 0 0 1-7.9-11.25L352.18 393a7.44 7.44 0 0 1 13.54 2.37l10.36 46.5 13.12-2.92a7.43 7.43 0 1 1 3.24 14.51l-13.12 2.93 2.84 12.77a7.42 7.42 0 0 1-5.64 8.84Zm-43.93-26.46 29-6.46-6.46-29Z"/><path fill="#634e49" d="m313.61 461.34 41.77-65.74a7.44 7.44 0 0 1 7.56-3.34 7.58 7.58 0 0 1 1.64.49 7.43 7.43 0 0 0-12.4.23l-41.78 65.74a7.42 7.42 0 0 0 3.36 10.82 7.41 7.41 0 0 1-.15-8.2Z"/><path fill="#2c130e" d="M518.63 524.75a7.44 7.44 0 0 1-5-9.23l3.64-12.52-45.71-13.42a7.43 7.43 0 0 1-1.48-13.66l68.36-37.34a7.43 7.43 0 0 1 10.7 8.62l-13.41 45.71 12.9 3.79a7.44 7.44 0 0 1-4.19 14.27l-12.9-3.78-3.68 12.55a7.44 7.44 0 0 1-9.23 5.01ZM493 480.34l28.49 8.35 8.36-28.48Z"/><path fill="#634e49" d="M466.36 483.86a7.42 7.42 0 0 1 3.43-4l68.36-37.34a7.43 7.43 0 0 1 10.85 5.11l.13-.46a7.43 7.43 0 0 0-10.7-8.62l-68.36 37.34a7.44 7.44 0 0 0-3.83 7.32c.04.22.07.43.12.65Z"/><path fill="#2c130e" d="M443.73 475a44.52 44.52 0 1 1 31.47-13 44.23 44.23 0 0 1-31.47 13Zm0-74.16a29.64 29.64 0 1 0 29.64 29.64 29.67 29.67 0 0 0-29.64-29.67Z"/><path fill="#634e49" d="M400.63 434.25a44.54 44.54 0 0 1 85.46-17.53 44.53 44.53 0 1 0-83.3 31.28 44.46 44.46 0 0 1-2.16-13.75Z"/><path fill="#010101" d="M281.06 509.78a2 2 0 0 1 1.76-1.95 34.93 34.93 0 0 1 4-.21c2.95 0 5.12.69 6.49 1.92a6.25 6.25 0 0 1 2 4.85 6.8 6.8 0 0 1-1.79 4.94 9.56 9.56 0 0 1-7.07 2.54 10.43 10.43 0 0 1-2.41-.2v7.78a1.49 1.49 0 0 1-1.49 1.49 1.5 1.5 0 0 1-1.5-1.49Zm3 9.45a10.1 10.1 0 0 0 2.47.24c3.61 0 5.81-1.75 5.81-5 0-3-2.17-4.53-5.46-4.53a12.43 12.43 0 0 0-2.82.24Zm24.7 11.71a1.36 1.36 0 0 1-1.35-1.2l-.11-.89h-.1a6.2 6.2 0 0 1-5.08 2.47 4.74 4.74 0 0 1-5.09-4.77c0-4 3.58-6.22 10-6.19V520c0-1.37-.38-3.85-3.78-3.85a8.38 8.38 0 0 0-3.3.7 1.07 1.07 0 0 1-1.43-.62 1.07 1.07 0 0 1 .54-1.3 10.92 10.92 0 0 1 4.64-1c5.08 0 6.32 3.47 6.32 6.8V527c0 .87 0 1.72.09 2.51a1.36 1.36 0 0 1-1.35 1.47Zm-1.66-8.48c-3.3-.07-7 .51-7 3.74a2.67 2.67 0 0 0 2.85 2.89 4.15 4.15 0 0 0 4-2.78 3.3 3.3 0 0 0 .17-1Zm20.73-8.14a1.33 1.33 0 0 1 1.32 1.38c0 .88-.07 1.89-.07 3.19v9.65c0 3.81-.76 6.15-2.37 7.59a8.81 8.81 0 0 1-6 2 12.09 12.09 0 0 1-4.53-.84 1.22 1.22 0 0 1-.69-1.5 1.22 1.22 0 0 1 1.6-.75 9.74 9.74 0 0 0 3.72.72c3.09 0 5.36-1.61 5.36-5.8v-1.86h-.07a5.94 5.94 0 0 1-5.29 2.78c-4.12 0-7.08-3.5-7.08-8.1 0-5.64 3.68-8.83 7.49-8.83a5.52 5.52 0 0 1 5.19 2.89h.07l.06-1.26a1.33 1.33 0 0 1 1.33-1.25Zm-1.74 6.56a4.28 4.28 0 0 0-.17-1.38 4.35 4.35 0 0 0-4.22-3.19c-2.89 0-4.95 2.44-4.95 6.29 0 3.26 1.65 6 4.91 6a4.41 4.41 0 0 0 4.19-3.09 5.28 5.28 0 0 0 .24-1.61Zm9.69 2.3c.07 4.09 2.68 5.77 5.7 5.77a11.93 11.93 0 0 0 3.49-.45 1.1 1.1 0 0 1 1.4.81 1.11 1.11 0 0 1-.74 1.32 14.85 14.85 0 0 1-4.56.66c-5.12 0-8.18-3.37-8.18-8.39s3-9 7.8-9c5.43 0 6.87 4.77 6.87 7.83a1.4 1.4 0 0 1-1.41 1.39Zm8.86-2.16c0-1.93-.79-4.92-4.19-4.92-3.06 0-4.4 2.82-4.64 4.92Zm13.94-2.2c0-1.15 0-2.15-.05-3.11a1.32 1.32 0 0 1 1.33-1.39 1.33 1.33 0 0 1 1.33 1.25l.1 1.5h.07a6.1 6.1 0 0 1 5.49-3.13c2.3 0 5.87 1.37 5.87 7.08v8.41a1.5 1.5 0 0 1-1.51 1.51 1.51 1.51 0 0 1-1.51-1.51v-8.07c0-2.68-1-4.91-3.85-4.91a4.41 4.41 0 0 0-4.25 4.5v8.48a1.51 1.51 0 0 1-1.52 1.51 1.51 1.51 0 0 1-1.51-1.51Zm34.11 3.67c0 6.15-4.26 8.83-8.28 8.83-4.5 0-8-3.3-8-8.55 0-5.57 3.64-8.83 8.25-8.83 4.8 0 8.03 3.47 8.03 8.55Zm-13.19.17c0 3.65 2.1 6.39 5.05 6.39s5.05-2.71 5.05-6.45c0-2.82-1.41-6.39-5-6.39s-5.1 3.29-5.1 6.45Zm20.64-11.19v2.85h3.18a1.14 1.14 0 0 1 1.15 1.15 1.15 1.15 0 0 1-1.15 1.15h-3.18v9c0 2.06.59 3.23 2.27 3.23a4.79 4.79 0 0 0 .55 0 1.2 1.2 0 0 1 1.28 1.12 1.2 1.2 0 0 1-1 1.25 9.82 9.82 0 0 1-1.64.13 4.16 4.16 0 0 1-3.26-1.28c-.86-.89-1.17-2.37-1.17-4.32v-9.07h-1.43a1.16 1.16 0 0 1-1.15-1.15 1.15 1.15 0 0 1 1.15-1.15h1.43v-2.85a1.48 1.48 0 0 1 1.09-1.43 1.48 1.48 0 0 1 1.88 1.37Zm15.32 17.98v-12.83h-1.18a1.15 1.15 0 0 1-1.15-1.15 1.14 1.14 0 0 1 1.15-1.15h1.18v-.79c0-2.34.52-4.47 1.92-5.81a5.8 5.8 0 0 1 4.06-1.54 7.38 7.38 0 0 1 1.47.15 1.18 1.18 0 0 1 .92 1.37 1.18 1.18 0 0 1-1.33 1 6.81 6.81 0 0 0-.82-.05c-2.58 0-3.23 2.26-3.23 4.81v.89h2.87a1.15 1.15 0 0 1 1.15 1.15 1.16 1.16 0 0 1-1.15 1.15h-2.87v12.83a1.49 1.49 0 0 1-1.49 1.49 1.5 1.5 0 0 1-1.5-1.52Zm24.32-6.96c0 6.15-4.26 8.83-8.28 8.83-4.5 0-8-3.3-8-8.55 0-5.57 3.64-8.83 8.25-8.83 4.8 0 8.03 3.47 8.03 8.55Zm-13.19.17c0 3.65 2.09 6.39 5.05 6.39s5.05-2.71 5.05-6.45c0-2.82-1.41-6.39-5-6.39s-5.1 3.29-5.1 6.45Zm30.91 3.75c0 1.14 0 2.18.06 3.14a1.34 1.34 0 0 1-1.34 1.39 1.34 1.34 0 0 1-1.34-1.25l-.09-1.46h-.07a6.25 6.25 0 0 1-5.5 3.09c-2.61 0-5.73-1.44-5.73-7.28v-8.21a1.5 1.5 0 0 1 1.51-1.51 1.51 1.51 0 0 1 1.51 1.51v7.69c0 3.16 1 5.29 3.71 5.29a4.36 4.36 0 0 0 4-2.75 4.18 4.18 0 0 0 .28-1.54v-8.69a1.51 1.51 0 0 1 1.51-1.51 1.5 1.5 0 0 1 1.51 1.51Zm5.02-7.59c0-1.15 0-2.15-.06-3.11a1.33 1.33 0 0 1 1.33-1.39 1.34 1.34 0 0 1 1.33 1.25l.09 1.5h.07a6.11 6.11 0 0 1 5.49-3.13c2.31 0 5.88 1.37 5.88 7.08v8.41a1.51 1.51 0 0 1-1.51 1.51 1.51 1.51 0 0 1-1.52-1.51v-8.07c0-2.68-1-4.91-3.84-4.91a4.31 4.31 0 0 0-4.06 3.09 4.57 4.57 0 0 0-.2 1.41v8.48a1.51 1.51 0 0 1-1.51 1.51 1.5 1.5 0 0 1-1.51-1.51Zm31.9-12.26a1.51 1.51 0 0 1 1.52 1.51v18.58c0 .94 0 2 .05 2.89a1.34 1.34 0 0 1-1.35 1.4 1.33 1.33 0 0 1-1.34-1.28l-.08-1.6h-.07a6.14 6.14 0 0 1-5.66 3.26c-4 0-7.11-3.4-7.11-8.45 0-5.53 3.4-8.93 7.45-8.93a5.54 5.54 0 0 1 5 2.54h.07v-8.41a1.51 1.51 0 0 1 1.51-1.51Zm-1.51 14.52a5.54 5.54 0 0 0-.13-1.27 4.46 4.46 0 0 0-4.37-3.5c-3.12 0-5 2.75-5 6.42 0 3.37 1.65 6.15 4.92 6.15a4.55 4.55 0 0 0 4.43-3.61 5.36 5.36 0 0 0 .13-1.3Z"/><path fill="#23a9e1" d="M432.23 595.05a2.9 2.9 0 0 1-2.73-1.93l-7.5-21.53a2.89 2.89 0 0 1 5.46-1.91l7.54 21.53a2.9 2.9 0 0 1-1.78 3.68 2.93 2.93 0 0 1-.99.16Zm24.98-.51a2.64 2.64 0 0 1-.55-.06 2.88 2.88 0 0 1-2.29-3.38l4.28-22.4a2.89 2.89 0 1 1 5.68 1.09l-4.28 22.4a2.91 2.91 0 0 1-2.84 2.35Zm20.71 11.94a2.85 2.85 0 0 1-1.84-.66 2.89 2.89 0 0 1-.39-4.07l14.51-17.6a2.89 2.89 0 1 1 4.46 3.68l-14.5 17.6a2.91 2.91 0 0 1-2.24 1.05Zm-21.56 124.19a2.9 2.9 0 0 1-2.84-2.39l-4-22.45a2.89 2.89 0 0 1 5.69-1l4 22.45a2.89 2.89 0 0 1-2.34 3.35 2.94 2.94 0 0 1-.51.04Zm-36.54-4.5a3.17 3.17 0 0 1-1-.17 2.89 2.89 0 0 1-1.72-3.71l7.8-21.43a2.89 2.89 0 1 1 5.44 2l-7.81 21.43a2.88 2.88 0 0 1-2.71 1.88ZM392 704.7a2.9 2.9 0 0 1-1.91-5.07l17.13-15a2.89 2.89 0 0 1 3.82 4.34L393.87 704a2.9 2.9 0 0 1-1.87.7Z"/><path fill="#fff" d="M330.38 440.61c-1.73 3.53-4 6-5.06 5.45s-.53-3.81 1.2-7.33 4-6 5.05-5.45.53 3.81-1.19 7.33Zm81.93-28.51c-1.72 3.53-4 6-5.05 5.45s-.53-3.81 1.19-7.33 4-6 5.06-5.45.49 3.81-1.2 7.33Zm106.77 45.1c-3.4 2-6.64 2.72-7.23 1.69s1.68-3.45 5.08-5.41 6.64-2.72 7.23-1.7-1.68 3.46-5.08 5.42Z"/></g></svg>